<?xml version="1.0" encoding="UTF-8"?>
<!DOCTYPE svg PUBLIC "-//W3C//DTD SVG 1.1//EN" "http://www.w3.org/Graphics/SVG/1.1/DTD/svg11.dtd">
<!-- Creator: CorelDRAW 2017 -->
<svg xmlns="http://www.w3.org/2000/svg" xml:space="preserve" width="67.7332mm" height="60.9598mm" version="1.1" style="shape-rendering:geometricPrecision; text-rendering:geometricPrecision; image-rendering:optimizeQuality; fill-rule:evenodd; clip-rule:evenodd"
viewBox="0 0 6773.32 6095.98"
 xmlns:xlink="http://www.w3.org/1999/xlink">
 <defs>
  <style type="text/css">
   <![CDATA[
    .fil0 {fill:none}
    .fil1 {fill:#A8B6CC;fill-rule:nonzero}
    .fil3 {fill:#334E7F;fill-rule:nonzero}
    .fil2 {fill:#344E7E;fill-rule:nonzero}
   ]]>
  </style>
 </defs>
 <g id="Layer_x0020_1">
  <metadata id="CorelCorpID_0Corel-Layer"/>
  <rect class="fil0" x="-0.01" y="-0.02" width="6773.33" height="6096"/>
  <g id="_2117557734240">
   <path class="fil1" d="M2491.27 2497.93l1227.74 0 -386.09 -1499.42 -83.4 -315.39c0,0 -123.44,-496.9 -527.82,-575.22 -132.87,-2.92 -545.89,-23.24 -545.89,-23.24l315.46 2413.27z"/>
   <polygon class="fil1" points="1290.84,84.66 1930.96,84.66 2243.46,2497.93 1254.41,2497.93 "/>
   <polygon class="fil1" points="5456.88,3411.66 5456.88,3747.44 1247.94,3615.52 1247.94,3411.66 "/>
   <g>
    <polygon class="fil2" points="1646.75,2616.01 1943.4,2974.67 1943.4,2616.01 "/>
    <polygon class="fil2" points="1253.36,3317.54 1549.77,3317.54 1253.36,2972.29 "/>
    <polygon class="fil2" points="1253.36,2616.01 1253.36,2876.59 1588.02,3317.54 1943.4,3317.54 1943.4,3052.97 1579.36,2616.01 "/>
   </g>
   <path class="fil2" d="M2776.56 3317.54l-283.52 -695.75 -249.58 0 -102.65 276.21 38.59 68.77 -64.14 0 -130.36 350.77 791.66 0zm-547.81 -277.22l0 0 100.19 275.12 -56.74 0 -102.6 -275.12 59.15 0z"/>
   <g>
    <polygon class="fil2" points="2814.87,2621.79 2814.87,3154.55 3149.16,2621.79 "/>
    <polygon class="fil2" points="2814.87,3317.54 2814.87,3308.38 3189.11,2621.79 3658.23,2621.79 3658.23,2633.06 3285.13,3315.97 "/>
    <polygon class="fil2" points="3658.23,3317.54 3658.23,2770.29 3657.97,2774.37 3340.15,3315.97 "/>
   </g>
   <polygon class="fil2" points="4203.3,2621.79 4203.3,2623.67 4203.3,2655.82 4203.3,2951.71 4151.31,2951.71 4151.31,2623.67 4151.74,2623.67 4151.74,2621.79 3764.37,2621.79 3764.37,3317.54 4152.82,3317.54 4152.82,3027.75 4204.81,3027.75 4204.81,3317.54 4590.4,3317.54 4590.4,2621.79 "/>
   <polygon class="fil2" points="4912.07,3315.44 4809.47,3040.32 4868.62,3040.32 4968.81,3315.44 4967.65,3315.44 4968.52,3317.54 5416.46,3317.54 5132.91,2621.79 4883.38,2621.79 4780.76,2898 4819.33,2966.77 4755.16,2966.77 4624.8,3317.54 4912.89,3317.54 4912.89,3315.44 "/>
   <g>
    <polygon class="fil3" points="1421.23,5846.57 815.17,5846.57 815.17,5286.04 986.9,5286.04 986.9,5750.19 1421.23,5750.19 "/>
    <path class="fil3" d="M1832.06 5431.3c49.55,0 94.17,4.8 133.9,14.38 39.78,9.68 73.73,23.52 101.78,41.69 28.08,18.06 49.72,40.29 65.01,66.6 15.22,26.36 22.82,56.2 22.82,89.65 0,33.36 -7.71,63.28 -23.22,89.59 -15.42,26.29 -37.22,48.59 -65.32,66.87 -28.06,18.27 -62.11,32.22 -102.1,41.8 -40.02,9.65 -84.27,14.48 -132.87,14.48 -48.06,0 -91.96,-4.75 -131.74,-14.27 -39.73,-9.44 -73.78,-23.18 -102.1,-41.19 -28.34,-17.96 -50.35,-40.16 -66.04,-66.6 -15.74,-26.52 -23.56,-56.76 -23.56,-90.68 0,-33.45 7.71,-63.29 23.22,-89.65 15.42,-26.31 37.19,-48.54 65.32,-66.6 28.06,-18.17 62.13,-32.01 102.13,-41.69 39.99,-9.58 84.24,-14.38 132.77,-14.38zm0 340.11l0 0c21.92,0 42.18,-2.66 60.73,-8.09 18.59,-5.39 34.39,-13.4 47.52,-24.19 13.07,-10.74 23.32,-24.06 30.67,-39.92 7.37,-15.83 11.09,-34.37 11.09,-55.59 0,-21.27 -3.72,-39.76 -11.09,-55.67 -7.35,-15.84 -17.6,-29.07 -30.67,-39.68 -13.13,-10.61 -28.93,-18.62 -47.52,-24 -18.55,-5.36 -38.81,-8.09 -60.73,-8.09 -22.33,0 -42.8,2.73 -61.4,8.09 -18.54,5.38 -34.39,13.39 -47.49,24 -13.05,10.61 -23.27,23.84 -30.67,39.68 -7.4,15.91 -11.1,34.4 -11.1,55.67 0,21.22 3.7,39.76 11.1,55.59 7.4,15.86 17.62,29.18 30.67,39.92 13.1,10.79 28.95,18.8 47.49,24.19 18.6,5.43 39.07,8.09 61.4,8.09z"/>
    <path class="fil3" d="M3187.44 5384.33l-160.32 0 0 -98.29 160.32 0 0 98.29zm0 462.24l0 0 -160.32 0 0 -405.48 160.32 0 0 405.48z"/>
    <path class="fil3" d="M4602.71 5384.33l-160.37 0 0 -98.29 160.37 0 0 98.29zm0 462.24l0 0 -160.37 0 0 -405.48 160.37 0 0 405.48z"/>
    <path class="fil3" d="M3708.74 5553.97c-7.58,-40.23 -74.6,-47.71 -129.84,-47.71 -14.21,0 -27.21,0.74 -39.07,2.17 -11.91,1.43 -22.27,3.53 -31.19,6.31 -8.93,2.87 -15.85,6.4 -20.85,10.69 -5.1,4.22 -7.58,9.05 -7.58,14.4 0,4.22 10.62,17.8 13.13,20.74 2.56,2.98 8.66,5.89 18.54,8.7 9.75,2.84 24.31,5.92 43.46,9.18 19.23,3.24 45.22,7.4 78.11,12.49 40.23,5.92 75.02,12.18 104.53,18.7 29.51,6.53 72.3,15.49 91.93,25.15 19.63,9.65 34.31,21.4 43.88,35.27 9.61,13.87 14.42,31.14 14.42,51.8 0,19.23 -6.45,37.03 -19.18,53.5 -12.86,16.44 -30.85,30.71 -54.15,42.86 -23.27,12.17 -69.85,20.82 -102.89,27.74 -33.18,6.92 -70.27,10.4 -111.43,10.4 -171.75,0 -254.65,-42.49 -295.8,-122.96l163.51 -19.58c8.69,35.15 58.25,63.08 130,63.08 35.6,0 82.23,-5.63 100.72,-14.14 18.54,-8.49 20.58,-20.45 20.58,-32.62 0,-5.71 -5.81,-16.79 -9.75,-20.67 -3.91,-3.79 -19.02,-3.39 -30.46,-6.65 -11.38,-3.27 -27.15,-6.61 -47.26,-10 -20.1,-3.4 -46.14,-7.61 -78.11,-12.71 -39.25,-5.91 -73.12,-11.96 -101.41,-18.09 -28.32,-6.04 -51.59,-13.5 -69.87,-22.49 -18.28,-8.91 -31.86,-19.97 -40.79,-33.31 -8.9,-13.31 -16.59,-37.29 -16.59,-57.69 0,-17.53 5.95,-33.84 17.81,-49.01 11.89,-15.15 28.77,-28.35 50.72,-39.49 21.9,-11.2 45.51,-18.28 76.6,-24.59 30.99,-6.39 68.63,-11.3 107.02,-11.3 166.73,0 262.31,38.49 286.14,111.34l-154.88 18.49z"/>
    <path class="fil3" d="M5796.99 5553.97c-7.58,-40.23 -74.6,-47.71 -129.84,-47.71 -14.21,0 -27.21,0.74 -39.07,2.17 -11.91,1.43 -22.27,3.53 -31.2,6.31 -8.92,2.87 -15.85,6.4 -20.84,10.69 -5.1,4.22 -7.58,9.05 -7.58,14.4 0,4.22 10.62,17.8 13.13,20.74 2.56,2.98 8.66,5.89 18.54,8.7 9.75,2.84 24.31,5.92 43.46,9.18 19.23,3.24 45.22,7.4 78.11,12.49 40.23,5.92 75.02,12.18 104.53,18.7 29.51,6.53 72.3,15.49 91.93,25.15 19.62,9.65 34.31,21.4 43.88,35.27 9.61,13.87 14.39,31.14 14.39,51.8 0,19.23 -6.42,37.03 -19.15,53.5 -12.86,16.44 -30.85,30.71 -54.15,42.86 -23.28,12.17 -69.87,20.82 -102.89,27.74 -33.18,6.92 -70.27,10.4 -111.43,10.4 -171.73,0 -254.68,-42.49 -295.83,-122.96l163.54 -19.58c8.67,35.15 58.22,63.08 129.99,63.08 35.61,0 82.24,-5.63 100.73,-14.14 18.54,-8.49 20.58,-20.45 20.58,-32.62 0,-5.71 -5.84,-16.79 -9.75,-20.67 -3.94,-3.79 -19.02,-3.39 -30.46,-6.65 -11.38,-3.27 -27.15,-6.61 -47.26,-10 -20.1,-3.4 -46.17,-7.61 -78.11,-12.71 -39.25,-5.91 -73.12,-11.96 -101.41,-18.09 -28.29,-6.04 -51.59,-13.5 -69.87,-22.49 -18.25,-8.91 -31.89,-19.97 -40.81,-33.31 -8.88,-13.31 -16.59,-37.29 -16.59,-57.69 0,-17.53 5.97,-33.84 17.8,-49.01 11.86,-15.15 28.77,-28.35 50.72,-39.49 21.93,-11.2 45.54,-18.28 76.63,-24.59 30.99,-6.39 68.63,-11.3 107.02,-11.3 166.73,0 262.31,38.49 286.13,111.34l-154.87 18.49z"/>
    <path class="fil3" d="M4334.77 5839.99c-20.55,3.11 -57.4,12.84 -74.46,14.19 -17.17,1.44 -33.02,2.18 -47.66,2.18 -37.91,0 -68.23,-2.79 -90.84,-8.3 -22.62,-5.49 -39.81,-13.72 -51.73,-24.59 -11.83,-10.95 -19.49,-24.61 -22.87,-41 -3.52,-16.45 -5.13,-35.55 -5.13,-57.37l0 -199.96 -74.07 0 0 -84.05 74.07 0 0 -86.15 162.99 -61.98 0 148.13 111.71 -0.56 0 84.08 -111.71 0.53 0 202.98c0,9.28 4.89,15.94 6.23,21.59 1.35,5.65 9.2,7.74 11.71,10.87 2.51,3.13 5.7,5.18 9.56,6.13 3.91,1.01 8.37,1.49 13.39,1.49 10.01,0 17.89,1.64 31.54,0.61 13.69,-0.96 22.88,-9.79 39.28,-11.49l17.99 82.67z"/>
    <path class="fil3" d="M5330.85 5705.34c-6.92,23.79 -26.26,52.46 -42.8,70.34 -16.37,17.82 -36.56,32.7 -60.25,44.58 -23.83,11.91 -50.77,20.87 -80.89,26.92 -30.11,6.13 -62.34,9.18 -96.6,9.18 -46.18,0 -88.26,-4.75 -126.46,-14.27 -38.17,-9.44 -70.92,-23.18 -98.29,-41.19 -27.39,-17.96 -48.66,-40.16 -63.77,-66.6 -15.03,-26.52 -22.61,-56.76 -22.61,-90.68 0,-33.45 7.45,-63.29 22.35,-89.65 14.76,-26.31 30.88,-54.93 58.01,-72.99 27.15,-18.17 59.91,-32.01 98.34,-41.67 38.33,-9.6 85.86,-8.01 132.43,-8.01 34.66,0 71.35,-0.63 101.28,5.28 29.93,5.99 56.71,14.77 80.49,26.31 23.75,11.62 39.46,29.89 55.71,47.58 16.11,17.67 22.74,24.27 29.64,47.51l-163.02 13.87c-4.04,-19.58 -15.69,-33.71 -34.92,-42.49 -19.15,-8.78 -47.23,-19.58 -74.2,-19.58 -21.45,0 -41.08,2.74 -58.88,8.09 -17.89,5.39 -33.18,13.4 -45.89,24.01 -12.86,10.58 -22.74,23.84 -29.79,39.7 -7.16,15.89 -5.68,40.77 -5.68,62.04 0,21.22 3.51,39.76 10.62,55.59 7.1,15.86 16.98,29.18 29.79,39.92 12.79,10.79 28.08,18.8 45.97,24.19 17.72,5.43 37.35,8.09 58.88,8.09 12.33,0 24.3,-1.17 36,-3.61 11.65,-2.39 22.09,-6.05 31.49,-11.01 9.35,-4.96 17.25,-11.09 23.64,-18.27 6.34,-7.22 25.65,-35.62 27.95,-45.28l161.46 12.1z"/>
    <path class="fil3" d="M2707.96 5439.92l-1.08 56.42c-28.16,-27.19 -81.15,-53.84 -105.06,-57.64 -23.9,-3.74 -110.47,-20.66 -173.29,1.09 -35.45,10.13 -66.7,16.52 -92.72,35.46 -25.99,19.04 -46.44,42.15 -61.2,69.33 -14.75,27.13 -22.12,57.93 -22.12,92.17 0,32.22 6.19,61.66 18.6,88.21 12.47,26.61 30.64,49.36 54.55,68.25 23.88,18.91 63.82,33.23 99.22,43.57 35.4,10.32 85.69,9.79 131.63,9.79 107.07,-19.65 114.89,-55.11 137.39,-65.3 5.47,36.9 9.04,102.88 -13.68,119.41 -31.49,28.19 -83.87,29.36 -123.71,29.36 -59.06,0 -89.79,-5.25 -97.1,-40.63l-187.61 -14.75c-3.57,22.94 2.8,50.29 17.33,66.39 14.55,16.09 33.89,29.78 58.03,40.92 24.15,11.22 57.46,16.66 90.03,22.62 32.6,5.92 86.22,6.74 126.56,6.74 197.83,0 296.79,-44.05 296.79,-201.81l0 -369.6 -152.56 0zm-147.29 322.84l0 0c-78.35,0 -141.89,-56.47 -141.89,-126.14 0,-69.68 63.54,-126.15 141.89,-126.15 78.35,0 141.88,56.47 141.88,126.15 0,69.67 -63.53,126.14 -141.88,126.14z"/>
   </g>
   <g>
    <polygon class="fil3" points="1247.94,5100.62 902.08,5100.62 442.83,4602.75 442.09,5100.62 84.65,5100.62 84.65,4195.68 431.26,4195.68 899.17,4695.61 896.29,4195.68 1247.94,4195.68 "/>
    <path class="fil3" d="M2704.71 5100.62l-395.34 0 -60.65 -153.47 -425.65 0 -62.84 153.47 -391.22 0 465.82 -904.94 415.05 0 454.83 904.94zm-533.97 -347.06l0 0 -137.42 -320.1 -131.18 320.1 268.6 0z"/>
    <path class="fil3" d="M6688.66 5100.62l-395.34 0 -60.65 -153.47 -425.67 0 -62.82 153.47 -391.27 0 465.87 -904.94 414.97 0 454.91 904.94zm-533.97 -347.06l0 0 -137.42 -320.1 -131.21 320.1 268.63 0z"/>
    <polygon class="fil3" points="3879.86,5100.62 2727.46,5097.22 2727.46,4909.09 3402.26,4386.01 2792.44,4386.01 2792.44,4195.68 3853.87,4195.68 3856.06,4372.96 3173.71,4903.66 3879.86,4901.48 "/>
    <polygon class="fil3" points="5214.27,5100.27 4835.18,5100.62 4835.31,4729.16 4421.42,4729.16 4421.42,5100.27 4047.21,5100.27 4047.21,4195.34 4421.42,4195.34 4421.42,4507.46 4835.31,4507.46 4835.31,4195.34 5214.27,4195.34 "/>
   </g>
  </g>
 </g>
</svg>
