<?xml version="1.0" encoding="UTF-8"?>
<!DOCTYPE svg PUBLIC "-//W3C//DTD SVG 1.1//EN" "http://www.w3.org/Graphics/SVG/1.1/DTD/svg11.dtd">
<!-- Creator: CorelDRAW 2017 -->
<svg xmlns="http://www.w3.org/2000/svg" xml:space="preserve" width="1600px" height="250px" version="1.1" style="shape-rendering:geometricPrecision; text-rendering:geometricPrecision; image-rendering:optimizeQuality; fill-rule:evenodd; clip-rule:evenodd"
viewBox="0 0 1600 250"
 xmlns:xlink="http://www.w3.org/1999/xlink">
 <defs>
  <style type="text/css">
   <![CDATA[
    .fil0 {fill:none}
    .fil2 {fill:#D40511}
    .fil1 {fill:#334E7F;fill-rule:nonzero}
   ]]>
  </style>
 </defs>
 <g id="Layer_x0020_1">
  <metadata id="CorelCorpID_0Corel-Layer"/>
  <rect class="fil0" width="1600" height="250"/>
  <g id="_1789324014384">
   <g>
    <polygon class="fil1" points="171.97,213.19 100.39,213.19 100.39,146.98 120.67,146.98 120.67,201.8 171.97,201.8 "/>
    <path class="fil1" d="M220.49 164.14c5.85,0 11.12,0.57 15.82,1.7 4.7,1.14 8.71,2.78 12.02,4.92 3.31,2.13 5.87,4.76 7.68,7.87 1.79,3.11 2.69,6.64 2.69,10.59 0,3.94 -0.91,7.47 -2.74,10.58 -1.82,3.1 -4.4,5.74 -7.72,7.9 -3.31,2.15 -7.33,3.8 -12.05,4.93 -4.73,1.14 -9.96,1.71 -15.7,1.71 -5.67,0 -10.86,-0.56 -15.56,-1.68 -4.69,-1.12 -8.71,-2.74 -12.06,-4.87 -3.34,-2.12 -5.94,-4.74 -7.8,-7.86 -1.86,-3.14 -2.78,-6.71 -2.78,-10.71 0,-3.95 0.91,-7.48 2.74,-10.59 1.82,-3.11 4.4,-5.74 7.72,-7.87 3.31,-2.14 7.34,-3.78 12.06,-4.92 4.72,-1.13 9.95,-1.7 15.68,-1.7zm0 40.17l0 0c2.59,0 4.98,-0.31 7.17,-0.96 2.2,-0.63 4.07,-1.58 5.62,-2.85 1.54,-1.27 2.75,-2.84 3.62,-4.72 0.87,-1.87 1.31,-4.06 1.31,-6.56 0,-2.52 -0.44,-4.7 -1.31,-6.58 -0.87,-1.87 -2.08,-3.43 -3.62,-4.69 -1.55,-1.25 -3.42,-2.19 -5.62,-2.83 -2.19,-0.63 -4.58,-0.96 -7.17,-0.96 -2.64,0 -5.05,0.33 -7.25,0.96 -2.19,0.64 -4.06,1.58 -5.61,2.83 -1.54,1.26 -2.75,2.82 -3.62,4.69 -0.88,1.88 -1.31,4.06 -1.31,6.58 0,2.5 0.43,4.69 1.31,6.56 0.87,1.88 2.08,3.45 3.62,4.72 1.55,1.27 3.42,2.22 5.61,2.85 2.2,0.65 4.61,0.96 7.25,0.96z"/>
    <path class="fil1" d="M380.58 158.59l-18.94 0 0 -11.61 18.94 0 0 11.61zm0 54.6l0 0 -18.94 0 0 -47.89 18.94 0 0 47.89z"/>
    <path class="fil1" d="M547.73 158.59l-18.94 0 0 -11.61 18.94 0 0 11.61zm0 54.6l0 0 -18.94 0 0 -47.89 18.94 0 0 47.89z"/>
    <path class="fil1" d="M442.15 178.63c-0.9,-4.75 -8.81,-5.64 -15.34,-5.64 -1.68,0 -3.21,0.09 -4.61,0.26 -1.41,0.17 -2.63,0.42 -3.69,0.74 -1.05,0.34 -1.87,0.76 -2.46,1.27 -0.6,0.5 -0.89,1.07 -0.89,1.7 0,0.5 1.25,2.1 1.55,2.45 0.3,0.35 1.02,0.69 2.19,1.02 1.15,0.34 2.87,0.7 5.13,1.09 2.27,0.38 5.34,0.87 9.22,1.47 4.76,0.7 8.87,1.44 12.35,2.21 3.49,0.77 8.54,1.83 10.86,2.97 2.32,1.14 4.05,2.53 5.18,4.17 1.14,1.64 1.7,3.68 1.7,6.12 0,2.27 -0.76,4.37 -2.26,6.32 -1.52,1.94 -3.64,3.62 -6.4,5.06 -2.75,1.44 -8.25,2.46 -12.15,3.27 -3.92,0.82 -8.3,1.23 -13.16,1.23 -20.29,0 -30.08,-5.02 -34.94,-14.52l19.32 -2.31c1.02,4.15 6.88,7.45 15.35,7.45 4.2,0 9.71,-0.67 11.9,-1.67 2.19,-1 2.43,-2.42 2.43,-3.85 0,-0.68 -0.69,-1.99 -1.16,-2.45 -0.46,-0.44 -2.24,-0.4 -3.59,-0.78 -1.35,-0.39 -3.21,-0.78 -5.58,-1.18 -2.38,-0.4 -5.45,-0.9 -9.23,-1.5 -4.64,-0.7 -8.64,-1.42 -11.98,-2.14 -3.34,-0.71 -6.09,-1.6 -8.25,-2.66 -2.16,-1.05 -3.76,-2.36 -4.82,-3.93 -1.05,-1.57 -1.96,-4.41 -1.96,-6.81 0,-2.08 0.71,-4 2.11,-5.79 1.4,-1.79 3.39,-3.35 5.99,-4.67 2.58,-1.32 5.37,-2.16 9.04,-2.9 3.66,-0.76 8.11,-1.34 12.64,-1.34 19.7,0 30.99,4.55 33.8,13.15l-18.29 2.19z"/>
    <path class="fil1" d="M688.79 178.63c-0.89,-4.75 -8.81,-5.64 -15.33,-5.64 -1.68,0 -3.22,0.09 -4.62,0.26 -1.41,0.17 -2.63,0.42 -3.68,0.74 -1.06,0.34 -1.88,0.76 -2.47,1.27 -0.6,0.5 -0.89,1.07 -0.89,1.7 0,0.5 1.25,2.1 1.55,2.45 0.3,0.35 1.02,0.69 2.19,1.02 1.15,0.34 2.87,0.7 5.13,1.09 2.27,0.38 5.34,0.87 9.23,1.47 4.75,0.7 8.86,1.44 12.34,2.21 3.49,0.77 8.54,1.83 10.86,2.97 2.32,1.14 4.05,2.53 5.18,4.17 1.14,1.64 1.7,3.68 1.7,6.12 0,2.27 -0.75,4.37 -2.26,6.32 -1.52,1.94 -3.64,3.62 -6.39,5.06 -2.75,1.44 -8.26,2.46 -12.16,3.27 -3.91,0.82 -8.29,1.23 -13.16,1.23 -20.28,0 -30.08,-5.02 -34.94,-14.52l19.32 -2.31c1.02,4.15 6.88,7.45 15.35,7.45 4.21,0 9.72,-0.67 11.9,-1.67 2.19,-1 2.43,-2.42 2.43,-3.85 0,-0.68 -0.69,-1.99 -1.15,-2.45 -0.47,-0.44 -2.25,-0.4 -3.6,-0.78 -1.34,-0.39 -3.21,-0.78 -5.58,-1.18 -2.38,-0.4 -5.45,-0.9 -9.23,-1.5 -4.63,-0.7 -8.63,-1.42 -11.97,-2.14 -3.35,-0.71 -6.1,-1.6 -8.26,-2.66 -2.15,-1.05 -3.76,-2.36 -4.82,-3.93 -1.05,-1.57 -1.96,-4.41 -1.96,-6.81 0,-2.08 0.71,-4 2.11,-5.79 1.4,-1.79 3.39,-3.35 5.99,-4.67 2.59,-1.32 5.38,-2.16 9.05,-2.9 3.66,-0.76 8.1,-1.34 12.64,-1.34 19.69,0 30.98,4.55 33.79,13.15l-18.29 2.19z"/>
    <path class="fil1" d="M516.09 212.41c-2.43,0.37 -6.78,1.52 -8.8,1.68 -2.02,0.17 -3.9,0.25 -5.63,0.25 -4.47,0 -8.05,-0.33 -10.73,-0.98 -2.67,-0.65 -4.7,-1.62 -6.1,-2.9 -1.4,-1.29 -2.31,-2.91 -2.71,-4.84 -0.41,-1.95 -0.6,-4.2 -0.6,-6.78l0 -23.62 -8.75 0 0 -9.92 8.75 0 0 -10.18 19.25 -7.32 0 17.5 13.19 -0.07 0 9.93 -13.19 0.06 0 23.98c0,1.09 0.58,1.88 0.73,2.55 0.16,0.66 1.09,0.91 1.39,1.28 0.29,0.37 0.67,0.61 1.13,0.72 0.46,0.12 0.99,0.18 1.58,0.18 1.18,0 2.11,0.19 3.72,0.07 1.62,-0.11 2.71,-1.15 4.64,-1.35l2.13 9.76z"/>
    <path class="fil1" d="M633.73 196.51c-0.81,2.81 -3.1,6.19 -5.05,8.3 -1.93,2.11 -4.32,3.87 -7.12,5.27 -2.81,1.41 -5.99,2.46 -9.55,3.18 -3.56,0.72 -7.36,1.08 -11.41,1.08 -5.45,0 -10.42,-0.56 -14.94,-1.68 -4.5,-1.12 -8.37,-2.74 -11.6,-4.87 -3.24,-2.12 -5.75,-4.74 -7.54,-7.86 -1.77,-3.14 -2.67,-6.71 -2.67,-10.71 0,-3.95 0.88,-7.48 2.64,-10.59 1.75,-3.11 3.65,-6.49 6.85,-8.62 3.21,-2.15 7.08,-3.78 11.62,-4.92 4.53,-1.14 10.14,-0.95 15.64,-0.95 4.09,0 8.43,-0.08 11.96,0.62 3.54,0.71 6.7,1.75 9.51,3.11 2.8,1.37 4.66,3.53 6.58,5.62 1.9,2.09 2.68,2.87 3.5,5.61l-19.25 1.64c-0.48,-2.31 -1.86,-3.98 -4.13,-5.02 -2.26,-1.04 -5.58,-2.31 -8.76,-2.31 -2.54,0 -4.85,0.32 -6.96,0.95 -2.11,0.64 -3.92,1.59 -5.42,2.84 -1.52,1.25 -2.68,2.82 -3.52,4.69 -0.84,1.88 -0.67,4.81 -0.67,7.33 0,2.5 0.42,4.69 1.26,6.56 0.84,1.88 2,3.45 3.52,4.72 1.51,1.27 3.31,2.22 5.43,2.85 2.09,0.65 4.41,0.96 6.95,0.96 1.46,0 2.87,-0.14 4.25,-0.43 1.38,-0.28 2.61,-0.71 3.72,-1.3 1.11,-0.58 2.04,-1.31 2.79,-2.16 0.75,-0.85 3.03,-4.2 3.3,-5.34l19.07 1.43z"/>
    <path class="fil1" d="M323.94 165.16l-0.12 6.66c-3.33,-3.21 -9.59,-6.36 -12.41,-6.81 -2.82,-0.44 -13.05,-2.44 -20.47,0.13 -4.19,1.2 -7.88,1.95 -10.95,4.19 -3.07,2.25 -5.49,4.98 -7.23,8.19 -1.74,3.2 -2.61,6.84 -2.61,10.88 0,3.81 0.73,7.29 2.2,10.42 1.47,3.15 3.61,5.83 6.44,8.06 2.82,2.24 7.54,3.93 11.72,5.15 4.18,1.22 10.12,1.16 15.54,1.16 12.65,-2.32 13.57,-6.51 16.23,-7.72 0.65,4.36 1.07,12.16 -1.61,14.11 -3.72,3.33 -9.91,3.47 -14.62,3.47 -6.97,0 -10.6,-0.62 -11.46,-4.8l-22.16 -1.75c-0.42,2.71 0.33,5.94 2.04,7.85 1.72,1.9 4.01,3.51 6.86,4.83 2.85,1.32 6.78,1.97 10.63,2.67 3.85,0.7 10.19,0.8 14.95,0.8 23.37,0 35.05,-5.21 35.05,-23.84l0 -43.65 -18.02 0zm-17.39 38.13l0 0c-9.26,0 -16.76,-6.67 -16.76,-14.9 0,-8.23 7.5,-14.9 16.76,-14.9 9.25,0 16.76,6.67 16.76,14.9 0,8.23 -7.51,14.9 -16.76,14.9z"/>
   </g>
   <g>
    <polygon class="fil1" points="151.5,124.28 110.65,124.28 56.41,65.47 56.32,124.28 14.1,124.28 14.1,17.39 55.04,17.39 110.31,76.44 109.97,17.39 151.5,17.39 "/>
    <path class="fil1" d="M323.56 124.28l-46.69 0 -7.17 -18.13 -50.27 0 -7.42 18.13 -46.21 0 55.02 -106.89 49.02 0 53.72 106.89zm-63.07 -41l0 0 -16.23 -37.8 -15.49 37.8 31.72 0z"/>
    <path class="fil1" d="M794.11 124.28l-46.7 0 -7.16 -18.13 -50.28 0 -7.42 18.13 -46.21 0 55.02 -106.89 49.02 0 53.73 106.89zm-63.07 -41l0 0 -16.23 -37.8 -15.5 37.8 31.73 0z"/>
    <polygon class="fil1" points="462.36,124.28 326.25,123.87 326.25,101.65 405.95,39.87 333.92,39.87 333.92,17.39 459.29,17.39 459.55,38.33 378.95,101.01 462.36,100.76 "/>
    <polygon class="fil1" points="619.97,124.23 575.19,124.28 575.21,80.4 526.32,80.4 526.32,124.23 482.12,124.23 482.12,17.35 526.32,17.35 526.32,54.22 575.21,54.22 575.21,17.35 619.97,17.35 "/>
   </g>
  </g>
  <g id="DHL_logo.svg">
   <g>
    <polygon class="fil2" points="796.5,171.44 891.01,171.44 885.58,179.05 796.5,179.05 "/>
    <polygon class="fil2" points="1575.96,179.05 1460.26,179.05 1466.23,171.44 1576.5,171.44 1576.5,179.05 "/>
    <polygon class="fil2" points="796.5,157.32 901.88,157.32 895.9,164.92 796.5,164.92 "/>
    <polygon class="fil2" points="796.5,143.2 912.74,143.2 906.76,150.8 796.5,150.8 "/>
    <polygon class="fil2" points="1575.96,164.92 1471.12,164.92 1477.1,157.32 1576.5,157.32 1576.5,164.92 "/>
    <polygon class="fil2" points="1487.42,143.2 1575.96,143.2 1575.96,150.8 1481.44,150.8 "/>
    <path class="fil2" d="M898.62 179.05l49.97 -66.82c0,0 55.4,0 61.92,0 7.06,0 7.06,2.72 3.26,7.07 -3.26,4.34 -9.23,12.49 -12.49,16.84 -1.63,2.71 -4.89,6.51 5.43,6.51 11.41,0 83.11,0 83.11,0 -6.52,9.78 -29.34,36.94 -69.53,36.94 -32.59,-0.54 -121.67,-0.54 -121.67,-0.54z"/>
    <polygon class="fil2" points="1184.87,143.2 1157.71,179.59 1086.56,179.59 1113.71,143.2 "/>
    <polygon class="fil2" points="1288.62,143.2 1261.46,179.59 1189.76,179.59 1216.92,143.2 "/>
    <path class="fil2" d="M1311.97 143.2c0,0 -5.43,7.06 -7.6,10.32 -9.24,11.95 -1.09,26.07 28.24,26.07 33.68,0 115.16,0 115.16,0l27.16 -36.39 -162.96 0z"/>
    <path class="fil2" d="M933.92 70.95l-24.98 33.14c0,0 128.73,0 135.79,0 7.06,0 7.06,2.71 3.26,7.06 -3.26,4.35 -9.23,12.49 -12.49,16.84 -1.63,2.17 -4.89,6.52 5.43,6.52 11.41,0 55.41,0 55.41,0 0,0 9.23,-11.95 16.29,-22.27 10.32,-13.58 1.09,-41.83 -35.3,-41.83 -32.6,0.54 -143.41,0.54 -143.41,0.54z"/>
    <polygon class="fil2" points="1294.59,134.51 1119.69,134.51 1167.49,70.95 1239.19,70.95 1212.03,107.35 1244.08,107.35 1271.23,70.95 1342.93,70.95 "/>
    <polygon class="fil2" points="1441.79,70.95 1393.99,134.51 1317.95,134.51 1365.75,70.95 "/>
   </g>
  </g>
 </g>
</svg>
